/* XPM */
static char *_d06f8d93bc04b26ccacafe977e47deaoEuLyN45mwdTrO7J[] = {
/* columns rows colors chars-per-pixel */
"30 30 5 1 ",
"  c None",
". c #302C2E",
"X c #F47E1B",
"o c #F4B41B",
"O c #DFF6F5",
/* pixels */
"                              ",
"                              ",
"                              ",
"                              ",
"                              ",
"                              ",
"                              ",
"                              ",
"            ......            ",
"           .oOOOOO.           ",
"          .ooooooOO.          ",
"         .Xoo....oOO.         ",
"         .Xo.XoOO.oO.         ",
"         .Xo.XooO.oO.         ",
"         .Xo.Xooo.oO.         ",
"         .Xo.Xooo.oo.         ",
"         .Xo.XXoo.oo.         ",
"         .Xo.XXXX.oo.         ",
"         .XXo....ooo.         ",
"          .XXoooooo.          ",
"           .XXXXXX.           ",
"            ......            ",
"                              ",
"                              ",
"                              ",
"                              ",
"                              ",
"                              ",
"                              ",
"                              "
};
