/* XPM */
static char *de5c626cc8ef4be6d7a9dd7b0788b990uu3AE0CzO3uOgJOL[] = {
/* columns rows colors chars-per-pixel */
"32 32 30 1 ",
"  c None",
". c #446300",
"X c #4F422F",
"o c #016571",
"O c #767678",
"+ c #8C3232",
"@ c #D14545",
"# c #FF5354",
"$ c #65A103",
"% c #C38100",
"& c #81D116",
"* c #FFD500",
"= c #FFEE00",
"- c #D1B07D",
"; c #0A9EB0",
": c #789297",
"> c #30C4D6",
", c #D3C980",
"< c #D0DA80",
"1 c #EFE480",
"2 c #DCC6A4",
"3 c #EB94EB",
"4 c #B6D9E2",
"5 c #D9D9DD",
"6 c #E7DDCE",
"7 c #C4DFE7",
"8 c #D3D2E0",
"9 c #E3E9E7",
"0 c #EFFAFF",
"q c white",
/* pixels */
"                                ",
"                                ",
"                                ",
"                                ",
"        o   X       X           ",
"       o;o X2X     X2X          ",
"       o>oX-6-X   X-6-X         ",
"       o>oX236X   X632X         ",
"       o>o-oo;;;;;;;oo-X        ",
"       o>oo;>>>>>>>>>;oX        ",
"       o>o;>444444444>;oX       ",
"       o>o>4::77777::4>oX       ",
"       o>o>7:0999990:7>oX       ",
"       o>o>7,,99999,,7>oXX      ",
"       o>o;><1999991<>;oX       ",
"       o;>o;>>>>>>>>>;o-XX      ",
"        o;>ooooooooooo-X        ",
"         oo;;;o;>;o8-XX         ",
"           +XXXXXXXXX+          ",
"         %+#q@#####@q#+%        ",
"        .Oq#@5qqqqq5@#qO.       ",
"       .X-5q+@#####@+q5-X.      ",
"       .X--O&%%...%%&O--X.      ",
"       %*XX&&==&&&==&&XX*%      ",
"        %*$$===&&&===$$*%X      ",
"         %.$***$$$***$.%X       ",
"           ..%%...%%..XX        ",
"            X--X X--X           ",
"                  XX            ",
"                                ",
"                                ",
"                                "
};
