/* XPM */
static char *c0be7891b7b847a6fe63e27954b173ady92byxOod76Vi5zC[] = {
/* columns rows colors chars-per-pixel */
"32 32 38 1 ",
"  c None",
". c #446300",
"X c #4F422F",
"o c #016571",
"O c #767678",
"+ c #8C3232",
"@ c #D14545",
"# c #FF5354",
"$ c #65A103",
"% c #C38100",
"& c #81D116",
"* c #FFD500",
"= c #FFEE00",
"- c #D1B07D",
"; c #BA75BA",
": c #0A9EB0",
"> c #6A8C92",
", c #789297",
"< c #449EB4",
"1 c #52A3B8",
"2 c #71ADB8",
"3 c #30C4D6",
"4 c #B4BF80",
"5 c #B9AE9E",
"6 c #D3C980",
"7 c #D0DA80",
"8 c #EFE480",
"9 c #DCC6A4",
"0 c #EB94EB",
"q c #B1CECD",
"w c #B6D9E2",
"e c #D9D9DD",
"r c #E7DDCE",
"t c #C4DFE7",
"y c #D0F0FF",
"u c #E3E9E7",
"i c #EFFAFF",
"p c white",
/* pixels */
"                                ",
"                                ",
"                                ",
"       o  X   XX                ",
"      o:oX-X X9-X               ",
"      o:oX--XXr9-X              ",
"      o:oX;--X0r9-X             ",
"      ooo::::oo0r9XX            ",
"     o33333333:orr9-X           ",
"      <>qwwww33:orrr9X          ",
"      1,tttt,>3:o:::::o         ",
"      2iuuuuy,3:o:::::o         ",
"      26uuuu643:or5Xr9X         ",
"      28uuuu733:orrrr9X         ",
"     o33333333:orr5Xr-X         ",
"      ooooooooorrrrr9X          ",
"       oo:3:o99999-XX           ",
"         .XXXXXXXXX.            ",
"       %%$+@###@@#p+%%          ",
"      .$$OOeppppep#@O$.         ",
"     .$=Oe+@####@+@p9X$.        ",
"     .*=X-O%%...%Oer9X*.        ",
"     %**&X&==&&&==X9X**%        ",
"      %*$$===&&&===X$*%XX       ",
"       %.$***$$$***$.%X9-X      ",
"         ..%%...%%..99--X       ",
"           X---O   XXXXX        ",
"            XXX                 ",
"                                ",
"                                ",
"                                ",
"                                "
};
