/* XPM */
static char *result[] = {
/* columns rows colors chars-per-pixel */
"32 32 243 2 ",
"   c #75594F",
".  c #77594F",
"X  c #775952",
"o  c #74605E",
"O  c #FF000D",
"+  c #FC0011",
"@  c #FF0019",
"#  c #FF001F",
"$  c #FC1D1C",
"%  c #FD2D18",
"&  c #FF3217",
"*  c #FF3E16",
"=  c #FF0027",
"-  c #FF0926",
";  c #FF0827",
":  c #FE0C26",
">  c #FA0028",
",  c #FF0028",
"<  c #FE0029",
"1  c #FF0029",
"2  c #FF0228",
"3  c #FC012B",
"4  c #FF002B",
"5  c #FA002C",
"6  c #FB002D",
"7  c #F9002E",
"8  c #FA002E",
"9  c #FC002C",
"0  c #FD002C",
"q  c #FC002D",
"w  c #FF002C",
"e  c #FF002D",
"r  c #FE002E",
"t  c #F20E2C",
"y  c #FC0B28",
"u  c #F90C2A",
"i  c #FE1627",
"p  c #FF1A25",
"a  c #FE1B25",
"s  c #FE1926",
"d  c #FE1B26",
"f  c #FE1B27",
"g  c #FD112B",
"h  c #FD1928",
"j  c #FB1D29",
"k  c #FF1B2D",
"l  c #F70030",
"z  c #F10036",
"x  c #F40034",
"c  c #F50034",
"v  c #F40036",
"b  c #F50036",
"n  c #F70036",
"m  c #F80130",
"M  c #FB0030",
"N  c #FB0031",
"B  c #F80032",
"V  c #FC0033",
"C  c #FF0032",
"Z  c #FF0033",
"A  c #FA0035",
"S  c #FA0036",
"D  c #FB0036",
"F  c #FD0034",
"G  c #FF0034",
"H  c #FF0035",
"J  c #FC0036",
"K  c #FD0036",
"L  c #F70038",
"P  c #F5003E",
"I  c #F90038",
"U  c #F80039",
"Y  c #F9003A",
"T  c #FA003A",
"R  c #FD0039",
"E  c #FF0038",
"W  c #FD003A",
"Q  c #FF2523",
"!  c #FE2024",
"~  c #FE2025",
"^  c #FE2524",
"/  c #FE2724",
"(  c #FD2824",
")  c #FE2824",
"_  c #FB2E25",
"`  c #FC2D26",
"'  c #FA3523",
"]  c #FB3024",
"[  c #FA3227",
"{  c #F23826",
"}  c #F63A25",
"|  c #F63F24",
" . c #FC3822",
".. c #996337",
"X. c #FF4C02",
"o. c #FF4708",
"O. c #FF5900",
"+. c #FF5801",
"@. c #FF5C00",
"#. c #FF5E0E",
"$. c #F9461E",
"%. c #FD4B1B",
"&. c #FF4B1A",
"*. c #FC4E1A",
"=. c #F75C1D",
"-. c #F95C1B",
";. c #FD5E1B",
":. c #FF6007",
">. c #FF6C06",
",. c #FF7000",
"<. c #FF7300",
"1. c #FF7B00",
"2. c #FF760C",
"3. c #FF6717",
"4. c #FF6518",
"5. c #FF6519",
"6. c #F8631C",
"7. c #FF7913",
"8. c #FD7A17",
"9. c #F7731E",
"0. c #EB4023",
"q. c #FB4622",
"w. c #F84921",
"e. c #C9793A",
"r. c #CF7C38",
"t. c #DC7F31",
"y. c #EF7D20",
"u. c #FF772E",
"i. c #A43840",
"p. c #D60E48",
"a. c #E41244",
"s. c #DE3141",
"d. c #FF2B4C",
"f. c #B07C64",
"g. c #CD5F42",
"h. c #C27C40",
"j. c #7CD63F",
"k. c #FF840B",
"l. c #FF9300",
"z. c #FF9500",
"x. c #FF9B00",
"c. c #FF9904",
"v. c #FF910E",
"b. c #FF910F",
"n. c #FF950D",
"m. c #FD9808",
"M. c #FF980F",
"N. c #FF9F0E",
"B. c #FE8E12",
"V. c #F5831C",
"C. c #FF9411",
"Z. c #FF9511",
"A. c #FF9610",
"S. c #F59B13",
"D. c #F59A15",
"F. c #FB9912",
"G. c #FF9910",
"H. c #F69719",
"J. c #FFAA03",
"K. c #FFA50A",
"L. c #FFA30E",
"P. c #FFAD0C",
"I. c #FFAC0E",
"U. c #FEAF0F",
"Y. c #FFB000",
"T. c #FFB705",
"R. c #FAB50E",
"E. c #F0BE0F",
"W. c #FFB90B",
"Q. c #EFA914",
"!. c #F5A012",
"~. c #F7A115",
"^. c #FEA010",
"/. c #F3BA10",
"(. c #F2BC11",
"). c #FBBC10",
"_. c #E38128",
"`. c #E68D3F",
"'. c #F4933B",
"]. c #FE9A3E",
"[. c #FFC800",
"{. c #FFCA06",
"}. c #F6CD0B",
"|. c #F5C90C",
" X c #F4CB0E",
".X c #F8CB08",
"XX c #EDDC0D",
"oX c #FFD507",
"OX c #FFDB03",
"+X c #FDD905",
"@X c #FCD208",
"#X c #F8DB0A",
"$X c #FFE100",
"%X c #FFE700",
"&X c #FCE603",
"*X c #F9E705",
"=X c #FFEE00",
"-X c #F9E608",
";X c #F4EE08",
":X c #EDF10D",
">X c #EEF90A",
",X c #FEF301",
"<X c #FBF700",
"1X c #FEF503",
"2X c #FCF602",
"3X c #F6FF03",
"4X c #F4F906",
"5X c #F2FF06",
"6X c #FCFA00",
"7X c #FEFA00",
"8X c #FEF802",
"9X c #FCFA02",
"0X c #F8FF00",
"qX c #F9FF00",
"wX c #FAFF00",
"eX c #FAFF01",
"rX c #FBFF01",
"tX c #FBFF02",
"yX c #FCFF00",
"uX c #FDFF00",
"iX c #FFFE00",
"pX c #FEFF00",
"aX c yellow",
"sX c #FCFF02",
"dX c #FFFF03",
"fX c #F8FF04",
"gX c #F0F40A",
"hX c #E7FF16",
"jX c #D3FF2D",
"kX c #DDFF28",
"lX c #CAEF39",
"zX c #D6FF35",
"xX c #D9FF33",
"cX c #E4FE29",
"vX c #FFFF2A",
"bX c #EFFF36",
"nX c #9A9157",
"mX c #B6B363",
"MX c #E28F49",
"NX c #F99944",
"BX c #DB9767",
"VX c #C9FE4D",
"CX c None",
/* pixels */
"CXCXCXCXCXCXCXCXCXCXCXCXCXCXCXCXCXCXCXCXCXCXCXCXCXCXCXCXCXCXCXCX",
"CXCXCXCXCXCXCXCXCXCXCXCXCXCXCXCXCXCXCXCXCXCXCXCXCXCXCXCXCXCXCXCX",
"CXCXCXCXCXCXCXCXCXCXCXCXCXd.u.vXk Z bXCXCXCXCXCXCXCXCXCXCXCXCXCX",
"CXCXCXCXCXCXCXCXCXCXCXW.6X0 T.aXd 4 aX2.= CXCXCXCXCXCXCXCXCXCXCX",
"CXCXCXCXCXCXCXCXCXp.O aXn.W U.aXh w aXoXe Y.lXCXCXCXCXCXCXCXCXCX",
"CXCXCXCXCXCXCXCXmX# *.wX6.Y /.aXa c >X=XA %.aX0.CXCXCXCXCXCXCXCX",
"CXCXCXCXCXCXCXCXl.w ).pXy x :XaX^ L Q.pX! M pXx.CXCXCXCXCXCXCXCX",
"CXCXCXCXCXCXCXhX@.I *XsX3 1 aXaX( G b.pX] D -X,X+ CXCXCXCXCXCXCX",
"CXCXCXCXCXCXCXxXO.7 rXXXz - 7XaX/ H A.yXy.R F.uX@ CXCXCXCXCXCXCX",
"CXCXCXCXCXCXCXzX+.0 pXK.Z i 7XaX/ H C.aXN.E M.yXr CXCXCXCXCXCXCX",
"CXCXCXCXCXCXCXkXX.9 pX Xn : 7XaX/ H Z.uXV.E B.uXm CXCXCXCXCXCXCX",
"CXCXCXCXCXCXCXcXc.V 1XfX6 < 7XaX/ H G.aX' J |.8Xq CXCXCXCXCXCXCX",
"CXCXCXCXCXCXCXCX%XC R.aXu , iXaX) H v.tX~ N 0Xm.CXCXCXCXCXCXCXCX",
"CXCXCXCXCXCXCXCXdX$ | qX-.v gXaXQ L E.<XF { 0X* CXCXCXCXCXCXCXCX",
"CXCXCXCXCXCXCXCXVX1.b qX8.P (.aXp B 5X&XK !.aXa.CXCXCXCXCXCXCXCX",
"CXCXCXCXCXCXCXCXCX@X> +X#XT P.aXf w aXS.U 9Xz.CXCXCXCXCXCXCXCXCX",
"CXCXCXCXCXCXCXCXCXjXo._ qXl D.aXs 8 3Xj  .uXt CXCXCXCXCXCXCXCXCX",
"CXCXCXCXCXCXCXCXCXCX$X5 ;X&.} uX2 $.4XS OXk.CXCXCXCXCXCXCXCXCXCX",
"CXCXCXCXCXCXCXCXCXCXCX& 9.{.[ eX1 5.^.g aXs.CXCXCXCXCXCXCXCXCXCX",
"CXCXCXCXCXCXCXCXCXCXCX.X% }.` 2X; I.;.7.H.CXCXCXCXCXCXCXCXCXCXCX",
"CXCXCXCXCXCXCXCXCXCXCXCX,.=.w.L.q.~.4.[.CXCXCXCXCXCXCXCXCXCXCXCX",
"CXCXCXCXCXCXCXCXCXCXCXCXCX3.<.:.J.#.>.j.CXCXCXCXCXCXCXCXCXCXCXCX",
"CXCXCXCXCXCXCXCXCXCXCXCXCXCXnXf.g.i.CXCXCXCXCXCXCXCXCXCXCXCXCXCX",
"CXCXCXCXCXCXCXCXCXCXCXCXCXCXCXCXCXCXCXCXCXCXCXCXCXCXCXCXCXCXCXCX",
"CXCXCXCXCXCXCXCXCXCXCXCXCXCXCXCXCXCXCXCXCXCXCXCXCXCXCXCXCXCXCXCX",
"CXCXCXCXCXCXCXCXCXCXCXCXCXCXCXCXCXCXCXCXCXCXCXCXCXCXCXCXCXCXCXCX",
"CXCXCXCXCXCXCXCXCXCXCXCXCXCXX . o   CXCXCXCXCXCXCXCXCXCXCXCXCXCX",
"CXCXCXCXCXCXCXCXCXCXCXCXCXCXe.t.r._.CXCXCXCXCXCXCXCXCXCXCXCXCXCX",
"CXCXCXCXCXCXCXCXCXCXCXCXCXCXMXh...].CXCXCXCXCXCXCXCXCXCXCXCXCXCX",
"CXCXCXCXCXCXCXCXCXCXCXCXCXCXBX'.`.NXCXCXCXCXCXCXCXCXCXCXCXCXCXCX",
"CXCXCXCXCXCXCXCXCXCXCXCXCXCXCXCXCXCXCXCXCXCXCXCXCXCXCXCXCXCXCXCX",
"CXCXCXCXCXCXCXCXCXCXCXCXCXCXCXCXCXCXCXCXCXCXCXCXCXCXCXCXCXCXCXCX"
};
