/* XPM */
static char *a18f7264937941a0cdb650005667ed66p7SJAr19zwClPS3J[] = {
/* columns rows colors chars-per-pixel */
"32 32 38 1 ",
"  c None",
". c #446300",
"X c #4F422F",
"o c #016571",
"O c #767678",
"+ c #8C3232",
"@ c #D14545",
"# c #FF5354",
"$ c #65A103",
"% c #C38100",
"& c #81D116",
"* c #FFD500",
"= c #FFEE00",
"- c #D1B07D",
"; c #BA75BA",
": c #0A9EB0",
"> c #6A8C92",
", c #789297",
"< c #449EB4",
"1 c #52A3B8",
"2 c #71ADB8",
"3 c #30C4D6",
"4 c #B4BF80",
"5 c #B9AE9E",
"6 c #D3C980",
"7 c #D0DA80",
"8 c #EFE480",
"9 c #DCC6A4",
"0 c #EB94EB",
"q c #B1CECD",
"w c #B6D9E2",
"e c #D9D9DD",
"r c #E7DDCE",
"t c #C4DFE7",
"y c #D0F0FF",
"u c #E3E9E7",
"i c #EFFAFF",
"p c white",
/* pixels */
"                                ",
"                                ",
"                                ",
"               oXX   X          ",
"              o:o9X X-X         ",
"              o3orXX--X         ",
"             Xo3o0X--;X         ",
"            XXo3ooo::::ooo      ",
"           X-9o3o:33333333o     ",
"          X9rro3o33wwwwq><      ",
"         o::::o3o3>,tttt,1      ",
"         o::::o3o3,yuuuui2      ",
"         X9rX5o3o346uuuu62      ",
"         X9rrro3o337uuuu82      ",
"         X-rX5o:3o33333333o     ",
"          X9rrro:3oooooooo      ",
"           XX-99o::o:3:o        ",
"            .XXXXXXXXX.         ",
"          %%+p#@@###@+$%%       ",
"         .$O@#peppppeOO$$.      ",
"        .$X9p@+@####@+eO=$.     ",
"        .*X9reO%...%%O-X=*.     ",
"        %**X9X==&&&==&X&**%     ",
"       XX%*$X===&&&===$$*%      ",
"      X-9X%.$***$$$***$.%       ",
"       X--99..%%...%%..         ",
"        XXXXX   O---X           ",
"                 XXX            ",
"                                ",
"                                ",
"                                ",
"                                "
};
