/* XPM */
static char *_f4efbd6bb974366f11976537037ce3edvDZ5jqkghFen91M[] = {
/* columns rows colors chars-per-pixel */
"32 32 20 1 ",
"  c None",
". c #446300",
"X c #4F422F",
"o c #016571",
"O c #767678",
"+ c #8C3232",
"@ c #D14545",
"# c #FF5354",
"$ c #65A103",
"% c #C38100",
"& c #81D116",
"* c #FFD500",
"= c #FFEE00",
"- c #D1B07D",
"; c #0A9EB0",
": c #30C4D6",
"> c #DCC6A4",
", c #D9D9DD",
"< c #E7DDCE",
"1 c white",
/* pixels */
"                                ",
"                                ",
"                                ",
"                                ",
"            X       X   o       ",
"           X>X     X>X o;o      ",
"          X-<-X   X-<-Xo;o      ",
"          X><<XoooX<<>Xo;o      ",
"         X-<<<-XXX-<<<-X;o      ",
"         X><<<>>>>><<<>X;o      ",
"        o-><<<<<<<<<<<>-oo      ",
"        o;<<<<<<<<<<<<<;oo      ",
"        o;;<<<<<<<<<<<;;oo      ",
"       XX;;;;:::::::;;;;XX      ",
"        X>;;;:::::::;;;>X       ",
"       XX->><<<<<<<<<>>-XX      ",
"         X->>>>>>>>>>>-X        ",
"          XX-->>>>>--XX         ",
"           +XXXXXXXXX+          ",
"         %+#1@#####@1#+%        ",
"        .O1#@,11111,@#1O.       ",
"       .X-,1+@#####@+1,-X.      ",
"       .X--O&%%...%%&O--X.      ",
"       %*XX&&==&&&==&&XX*%      ",
"       X%*$$===&&&===$$*%       ",
"       X-%.$***$$$***$.%        ",
"        X->..%%...%%..          ",
"         XXXXXXX X--X           ",
"             XX   XX            ",
"                                ",
"                                ",
"                                "
};
