/* XPM */
static char *result[] = {
/* columns rows colors chars-per-pixel */
"32 32 5 1 ",
"  c #265C42",
". c #3E8948",
"X c #63C74D",
"o c #124E89",
"O c #0095E9",
/* pixels */
"XXXXXXXXXXXXXXXXXXXXXXXXXXXX.oOO",
"XXXXXXXXXXXXXXXXXXXXXXXXXXXXX.oO",
"XXXXXXXXXXXXXXXXXXXXXXXXXXXXX.oO",
"XXXXX.XXXXXXXXXXXXXXXXXXXXXXX.oO",
"XXX.X.X.XXXXXXXXXXXXXXXXXXXXX.oO",
"XXXX...XXXXXXXXXXXXXXXXXXXXXX.oO",
"XXXXXXXXXXXXXXXXXXXXXXXXXXXXX.oO",
"XXXXXXXXXXXXXXXXXXXXXXXXXXXX.oOO",
"XXXXXXXXXXXXXXXXXXXXXXXXXXXX.oOO",
"XXXXXXXXXXXXXXXXXXXXXXXXXXXX.oOO",
"XXXXXXXXXXXXXXXXXXXXXXXXXXXX.oOO",
"XXXXXXXXXXXXXXXXXXXXXXXXXXXX.oOO",
"XXXXXXXXXXXXXXXXXXXXXXXXXXXX.oOO",
"XXXXXXXXXXXXXXXXXXXXXXXXXXXX.oOO",
"XXXXXXXXXXXXXXXXXXXXXXXXXXXX.oOO",
"XXXXXXXXXXXXXXXXXXXXXXXXXXX.oOOO",
"XXXXXXXXXXXXXXXXXXXXXXXXXXX.oOOO",
"XXXXXXXXXXXXXXXXXXXXXXXXXXX.oOOO",
"XXXXXXXXXXXXXXXXXXXXXXXXXXX.oOOO",
"XXXXXXXXXXXXXXXXXXXXXXXXXXX.oOOO",
"XXXXXXXXXXXXXXXXXXXXXXXXXXX.oOOO",
"XXXXXXXXXXXXX.XXXXXXXXXXXXX.oOOO",
"XXXXXXXXXXXXX.XXXXXXXXXXXXX.oOOO",
"XXXXXXXXXXXXX.XXXXXXXXXXXXX.oOOO",
"XXXXXXXXXXXXX XXXXXXXXXXXXX.oOOO",
"XXXXXXXXXXXXXXXXXXXXXXXXXXX.oOOO",
"XXXXXXXXXXXXXXXXXXXXXX.XXXX.ooOO",
"XXXXXXXXXXXXXXXXXXXX.X.X.XXX.oOO",
"XXXXXXXXXXXXXXXXXXXXX...XXXX.oOO",
"XXXXXXXXXXXXXXXXXXXXXXXXXXXX.oOO",
"XXXXXXXXXXXXXXXXXXXXXXXXXXXX.oOO",
"XXXXXXXXXXXXXXXXXXXXXXXXXXXX.oOO"
};
