/* XPM */
static char *result[] = {
/* columns rows colors chars-per-pixel */
"32 32 4 1 ",
"  c #078C3F",
". c #63C74D",
"X c #004D8E",
"o c #0095F0",
/* pixels */
"ooX ........................ Xoo",
"ooX ........................ Xoo",
"ooX ........................ Xoo",
"ooX ........................ Xoo",
"ooX ........................ Xoo",
"ooX ........................ Xoo",
"ooX ........................ Xoo",
"ooX ........................ Xoo",
"ooX ........................ Xoo",
"ooX ........................ Xoo",
"ooX ........................ Xoo",
"ooX ........................ Xoo",
"oX .......................... Xo",
"oX .......................... Xo",
"oX .......................... Xo",
"oX .......................... Xo",
"oX .......................... Xo",
"oX .......................... Xo",
"oX .......................... Xo",
"oX .......................... Xo",
"oX .......................... Xo",
"oX .......................... Xo",
"oX .......................... Xo",
"oX .......................... Xo",
"ooX ........................ Xoo",
"ooX ........................ Xoo",
"ooX ........................ Xoo",
"ooX ........................ Xoo",
"ooX ........................ Xoo",
"ooX ........................ Xoo",
"ooX ........................ Xoo",
"ooX ........................ Xoo"
};
