/* XPM */
static char *result[] = {
/* columns rows colors chars-per-pixel */
"32 32 5 1 ",
"  c #265C42",
". c #3E8948",
"X c #63C74D",
"o c #124E89",
"O c #0095E9",
/* pixels */
"XXXXXXXXXXXXXXXXXXXXXXXXXXXX.oOO",
"XXXXXXXXXXXXXXXXXXXXXXXXXXXX.oOO",
"XXXXXXXXXXXXXXXXXXXXXXXXXXXX.oOO",
"XXXXXXXXXXXXXXXXXXXXXXXXXXXX.oOO",
"XXXXXXXXXXXXXXXXXXXXXXXXXXXX.oOO",
"XXXXXXXXXXXXXXXXXXXXXXXXXXXXX.oO",
"XXXXXXXXXXXXXXXXXXXXXXXX.XXXX.oO",
"XXXXXXXXXXXXXXXXXXXXXXX.X.XXX.oO",
"XXXXXXXXXXXXXXXXXXXXXXXX.XXXX.oO",
"XXXXXXXXXXXXXXXXXXXXXXXXXXXXX.oO",
"XXXXXXXXXXXXXXXXXXXXXXXXXXXXX.oO",
"XXXXXXXXXXXXXXXXXXXXXXXXXXXXX.oO",
"XXXXXXXXXXXXXXXXXXXXXXXXXXXXX.oO",
"XXXXXXXXXXXXXXXXXXXXXXXXXXXX.oOO",
"XXXXXXXXXXXXXXXXXXXXXXXXXXXX.oOO",
"XXXXXXXXXXXXXXXXXXXXXXXXXXXX.oOO",
"XXXXXXXXXXXXXXXXXXXXXXXXXXXX.oOO",
"XXXXXXXXXXXXX.XXXXXXXXXXXXXX.oOO",
"XXXXXXXXXXXX..XXXXXXXXXXXXXX.oOO",
"XXXXXXXXXXXX..XXXXXXX.XXXXXX.oOO",
"XXXXXXXXXXXX. XXXXXXX.XX.XXX.oOO",
"XXXXXXXXXXXX XXXXXX.X.X.XXXX.oOO",
"XXXXXXXXXXXXXXXXXXXX...XXXXX.oOO",
"XXXXXXXXXXXXXXXXXXXX . XXXXXX.oO",
"XXXXXXXXXXXXXXXXXXXXXXXXXXXXX.oO",
"XXXXXXXXXXXXXXXXXXXXXXXXXXXXX.oO",
"XXXXXXXXXXXXXXXXXXXXXXXXXXXXX.oO",
"XXXXXXXX...........XXXXXXXXX.oOO",
".............................oOO",
"........ooooooooooo.........oOOO",
"ooooooooOOOOOOOOOOOoooooooooOOOO",
"OOOOOOOOOOOOOOOOOOOOOOOOOOOOOOOO"
};
