/* XPM */
static char *result[] = {
/* columns rows colors chars-per-pixel */
"32 32 5 1 ",
"  c #265C42",
". c #3E8948",
"X c #63C74D",
"o c #124E89",
"O c #0095E9",
/* pixels */
"OOOOOOOOOOOOOOOOOOOOOOOOOOOOOOOO",
"ooooooooOOOOOOOOOOOoooooooooOOOO",
"XXXXXXXXoooooooooooXXXXXXXXXoOOO",
"XXXXXXXXXXXXXXXXXXXXXXX.XXXX.oOO",
"XXX.XXX.XXXXXXXXXXXXXX..X..X.oOO",
"XXXX.X.XXXXXXXXXXXXXXX ...XXX.oO",
"XXXX.. XXXXXXXXXXXXXXX  . XXX.oO",
"XXXX  XXXXXXXXXXXXXXXXX  XXXX.oO",
"XXXXXXXXXXXXXXXXXXXXXXXXXXXXX.oO",
"XXXXXXXXXXXXXXXXXXXXXXXXXXXX.oOO",
"XXXXXXXXXX.XXXXXXXXXXXXXXXXX.oOO",
"XXXXXXXXX.X.XXXXXXXXXXXXXXXX.oOO",
"XXXXXXXXXX.XXXXXXXXXXXXXXXXX.oOO",
"XXXXXXXXXXXXXXXXXXXXXXXXXXXX.oOO",
"XXXXXXXXXXXXXXXXXXXXXXXXXXXX.oOO",
"XXXXXXXXXXXXXXXXXXXXXXXXXXXX.oOO",
"XXXXXXXXXXXXXXXXXXXXXXXXXXXX.oOO",
"XXXXXXXXXXXXXXXXXXXXXXXXXXXX.oOO",
"XXXXXXXXXXXXXXXXXXXXXXXXXXXX.oOO",
"XXXXXXXXXXXXXXXXXXXXXXXXXXXXX.oO",
"XXXXXXXXXXXXXXXXXXXXXXXXXXXXX.oO",
"XXXXXXXXXXXXXXXXXXXXXXXXXXXXX.oO",
"XXXXXXXXXXXXXXXXXXXXXXXXXXXXX.oO",
"XXXXXXXXXXXXXXXXXXXXXXXXXXXXX.oO",
"XXXXXXXXXXXXXXXXXXXXXXXXXXXXX.oO",
"XXXXXXXXXXXXXXXXXXXXXXXXXXXXX.oO",
"XXXXXXXXXXXXXXXXXXXXXXXXXXXXX.oO",
"XXXXXXXXXXXXXXXXXXXXXXXXXXXX.oOO",
"XXXXXXXXXXXXXXXXXXXXXXXXXXXX.oOO",
"XXXXXXXXXXXXXXXXXXXXXXXXXXXX.oOO",
"XXXXXXXXXXXXXXXXXXXXXXXXXXXX.oOO",
"XXXXXXXXXXXXXXXXXXXXXXXXXXXX.oOO"
};
