/* XPM */
static char *result[] = {
/* columns rows colors chars-per-pixel */
"32 32 5 1 ",
"  c #265C42",
". c #3E8948",
"X c #63C74D",
"o c #124E89",
"O c #0095E9",
/* pixels */
"OOo.XXXXXXXXXXXXXXXXXXXXXXXXXXXX",
"OOo.XXXXXXXXXXXXXXXXXXXXXXXXXXXX",
"Oo.XXXXXXXXXXXXXXXXXXXXXXXXXXXXX",
"Oo.XXXXXXXXXXXXXXXXXXXXXXXXXXXXX",
"Oo.XXXXXXXXXXXXXXXXXXXXXXXXXXXXX",
"Oo.XXXXXXXXXXXXXXXXXXXXXXXXXXXXX",
"Oo.XXXXXXXXXXXXXXXXXXXXXXXXXXXXX",
"Oo.XXXXXXXXXXXXXXXXXXXXXXXXXXXXX",
"OOo.XXXXXXXXXXXXXXXXXXXXXXXXXXXX",
"OOo.XXXXXXXXXXXXXXXXXXXXXXXXXXXX",
"OOo.XXXXXXXXXXXXXXXXXXXXXXXXXXXX",
"OOo.XXXXXXXXXXXXXXXXXXXXXXXXXXXX",
"OOo.XXXXXXXXXXXXXXXXXXXXXXXXXXXX",
"OOo.XXXXXXXXXXXXXXXXXXXXXXXXXXXX",
"OOo.XXXXXXXXXXXXXXXXXXXXXXXXXXXX",
"OOo.XXXXXXXXXXXXXXXXXXXXXXXXXXXX",
"OOOo.XXXXXXXXXXXXX.XXXXXXXXXXXXX",
"OOOo.XXXXXXXXXXXXX.XXXXXXXXXXXXX",
"OOOo.XXXXXXXXXXXXX XXXXXXXXXXXXX",
"OOOo.XXXXXXXXXXXXXXXXXXXXXXXXXXX",
"OOOo.XXXXXXXXXXXXXXX.XXXXXXXXXXX",
"OOOo.XXXXXXXXXXXXXXX.XXXXXXXXXXX",
"OOOo.XXXXXXXXXXXXXXX XXXXXXXXXXX",
"OOOo.XXXXXXXXXXXXXXXXXXXXXXXXXXX",
"OOOo.XXXXXXXXXXXXXXXXXXXXXXXXXXX",
"OOOo.XXXXXXXXXXXXXXXXXXXXXXX.XXX",
"OOOo.XXXXXXXXXXXXXXXXXXXXX.X.X.X",
"OOOo.XXX.XXXXXXXXXXXXXXXXXX...XX",
"OOo.XXX.X.XXXXXXXXXXXXXXXXXXXXXX",
"OOo.XXXX.XXXXXXXXXXXXXXXXXXXXXXX",
"OOo.XXXXXXXXXXXXXXXXXXXXXXXXXXXX",
"OOo.XXXXXXXXXXXXXXXXXXXXXXXXXXXX"
};
