/* XPM */
static char *result[] = {
/* columns rows colors chars-per-pixel */
"32 32 5 1 ",
"  c #265C42",
". c #3E8948",
"X c #63C74D",
"o c #124E89",
"O c #0095E9",
/* pixels */
"OOo.XXXXXXXXXXXXXXXXXXXXXXXXXXXX",
"OOo.XXXXXXXXXXXXXXXXXXXXXXXXXXXX",
"OOo.XXXXXXXXXXXXXXXXXXXXXXXXXXXX",
"OOo.XXXXXXXXXXXXXXXXXXXXXXXXXXXX",
"OOo.XXXXXXXXXXXXXXXXXXXXXXXXXXXX",
"Oo.XXXXXXXXXXXXXXXXXXXXXXXXXXXXX",
"Oo.XXXXXXXXXXXXXXXXXXXXXXXXXXXXX",
"Oo.XXXXXX.X.XXXXXXXXXXXXXXXXXXXX",
"Oo.XXXXXXX..XXXXXXXXXXXXXXX.XXXX",
"Oo.XXXXXXX..XXXXXXXXXXXXXXX.XXXX",
"Oo.XXXXXXX  XXXXXXXXXXXXXXX XXXX",
"Oo.XXXXXXXXXXXXXXXXXXXXXXXXXXXXX",
"Oo.XXXXXXXXXXXXXXXXXXXXXXXXXXXXX",
"OOo.XXXXXXXXXXXXXXXXXXXXXXXXXXXX",
"OOo.XXXXXXXXXXXXXXXXXXXXXXXXXXXX",
"OOo.XXXXX.XXXXXXXXXXXXXXXXXXXXXX",
"OOo.XXXX.X.XXXXXXXXXXXXXXXXXXXXX",
"OOo.XXXXX.XXXXXXXXXXXXXXXXXXXXXX",
"OOo.XXXXX.XXXXXXXXXXXXXXXXXXXXXX",
"OOo.XXXX.. XXXXXXXXXXXXXXXXXXXXX",
"OOo.XXXXX XXXXXXXXXXXXXXXXXXXXXX",
"OOo.XXXXXXXXXXXXXXXXXXXX.XXXXXXX",
"OOo.XXXXXXXXXXXXXXXXXXX.X.XXXXXX",
"Oo.XXXXXXXXXXXXXXXXXXXXX.XXXXXXX",
"Oo.XXXXXXXXXXXXXXXXXXXXXXXXXXXXX",
"Oo.XXXXXXXXXXXXXXXXXXXXXXXXXXXXX",
"Oo.XXXXXXXXXXXXXXXXXXXXXXXXXXXXX",
"OOo.XXXXXXXXX...........XXXXXXXX",
"OOo.............................",
"OOOo.........ooooooooooo........",
"OOOOoooooooooOOOOOOOOOOOoooooooo",
"OOOOOOOOOOOOOOOOOOOOOOOOOOOOOOOO"
};
