/* XPM */
static char *result[] = {
/* columns rows colors chars-per-pixel */
"32 32 5 1 ",
"  c #265C42",
". c #3E8948",
"X c #63C74D",
"o c #124E89",
"O c #0095E9",
/* pixels */
"OOOOOOOOOOOOOOOOOOOOOOOOOOOOOOOO",
"OOOOoooooooooOOOOOOOOOOOoooooooo",
"OOOoXXXXXXXXXoooooooooooXXXXXXXX",
"OOo.XXX.XXX.XXXXXXXXXXXXXXXXXXXX",
"OOo.XXX..X.XXXXXXXXXXXXXXXXXXXXX",
"Oo.XXXX....XXXXXXXXXXXXXXXXXXXXX",
"Oo.XXXXX.. XXXXXXXXXXXXXXXXXXXXX",
"Oo.XXXXX  XXXXXXXXXXXXXXXXXXXXXX",
"Oo.XXXXXXXXXXXXXXXXXXXXXXXXXXXXX",
"OOo.XXXXXXXXXXXXXXXXXXXXXXXXXXXX",
"OOo.XXXXXXXXXXXXXXXXXXXXXXXXXXXX",
"OOo.X.X...XXXXXXXXXXXXXXXX.XXXXX",
"OOo.X... XXXXXXXXXXXXXXXX.X.XXXX",
"OOo.X . XXXXXXXXXXXXXXXXXX.XXXXX",
"OOo.XX  XXXXXXXXXXXXXXXXXXXXXXXX",
"OOo.XXXXXXXXXXXXXXXXXXXXXXXXXXXX",
"OOo.XXXXXXXXXXXXXXXXXXXXXXXXXXXX",
"OOo.XXXXXXXXXXXXXXXXXXXXXXXXXXXX",
"OOo.XXXXXXXXXXXXXXXXXXXXXXXXXXXX",
"Oo.XXXXXXXXXXXXXXXXXXXXXXXXXXXXX",
"Oo.XXXXXXXXXXXXXXXXXXXXXXXXXXXXX",
"Oo.XXXXXXXXXXXXXXXXXXXXXXXXXXXXX",
"Oo.XXXXXXXXXXXXXXXXXXXXXXXXXXXXX",
"Oo.XXXXXXXXXXXXXXXXXXXXXXXXXXXXX",
"Oo.XXXXXXXXXXXXXXXXXXXXXXXXXXXXX",
"Oo.XXXXXXXXXXXXXXXXXXXXXXXXXXXXX",
"Oo.XXXXXXXXXXXXXXXXXXXXXXXXXXXXX",
"OOo.XXXXXXXXXXXXXXXXXXXXXXXXXXXX",
"OOo.XXXXXXX.XXXXXXXXXXXXXXXXXXXX",
"OOo.XXXXX.X.X.XXXXXXXXXXXXXXXXXX",
"OOo.XXXXXX...XXXXXXXXXXXXXXXXXXX",
"OOo.XXXXXXXXXXXXXXXXXXXXXXXXXXXX"
};
