/* XPM */
static char *result[] = {
/* columns rows colors chars-per-pixel */
"32 32 5 1 ",
"  c #265C42",
". c #3E8948",
"X c #63C74D",
"o c #124E89",
"O c #0095E9",
/* pixels */
"OOOOOOOOOOOOOOOOOOOOOOOOOOOOOOOO",
"ooOOOOOOOooooooooooooooooooOOOOO",
"XXoooooooXXXXXXXXXXXXXXXXXXooooo",
"XXXXXXXXXXXXXXXXXXXXXXXXXXXXXXXX",
"XXXXXXXXXXXXXXXXXXXXXXXXXXXXXXXX",
"XXXXXXXXXXXXXXXXXXXXXXXXXXXXXXXX",
"XXXXXXXXX.XXXXXXXXXXXXXXXXXXXXXX",
"XXXXXXXXX.XXXXXXXXXXXXXXXXXXXXXX",
"XXXXXXXXX .XXXXXXXXXXXXXXXXXXXXX",
"XXXXXXXXXX.XXXXXXXXXXXXXXXXXXXXX",
"XXXXXXXXXX XXXXXXXXXXXXXXXXXXXXX",
"XXXXXXXXXXXXXXXXXXXXXXXXXXXXXXXX",
"XXXXXXXXXXXXXXXXXXXXXXXXXXXXXXXX",
"XXXXXXXXXXXXXXXXXXXXXXXXXXXXXXXX",
"XXXXXXXXXXXXXXXXXXXXXXXXXXXXXXXX",
"XXXXXXXXXXXXXXXXXXXXXXXXXXXXXXXX",
"XXXXXXXXXXXXXXXXXXXXXXXXXXXXXXXX",
"XXXXXXXXXXXXXXXXXXXXXXXXXXXXXXXX",
"XXXXXXXXXXXXXXXXXXXXXXXXXXXXXXXX",
"XXXXXXXXXXXXXXXXXXXXXXXXXXXXXXXX",
"XXXXXXXXXXXXXXXXXXXXXXXXXXXXXXXX",
"XXXXXXXXXXXXXXXXXXXXXXXXXXXXXXXX",
"XXXXXXXXXXXXXXXXXXXXXXXXXXXXXXXX",
"XXXXXXXXXXXXXXXXXXXXXXXXXXXXXXXX",
"XXXXXXXXXXXXXXXXXXXXXXXXXXXX.XXX",
"XXXXXXXXXXXXXXXX.XXXXXXXXXXX.XXX",
"XXXXXXXXXXXXX.X.XXXXXXXXXXXX X.X",
"XXXXXXXXXXXXXX..XXXXXXXXXX.XXX.X",
"XXXXXXXXXXXXXX .XXXXXXXXXX.XXX X",
"XXXXXXXXXXXXXXX XXXXXXXXXX XXXXX",
"XXXXXXXXXXXXXXXXXXXXXXXXXXXXXXXX",
"XXXXXXXXXXXXXXXXXXXXXXXXXXXXXXXX"
};
