/* XPM */
static char *result[] = {
/* columns rows colors chars-per-pixel */
"32 32 4 1 ",
"  c #3E8948",
". c #63C74D",
"X c #124E89",
"o c #0095E9",
/* pixels */
"oooooooooooooooooooooooooooooooo",
"ooooooooXXXXXXXXXXXXoooooooooooo",
"XXXXXXXX............XXXXXXXXXXXX",
"................................",
"................................",
"................................",
"................................",
"................................",
"................................",
"................................",
"................................",
"................................",
"................................",
"................................",
"................................",
"................................",
"................................",
"................................",
"................................",
"................................",
"................................",
"................................",
"................................",
"................................",
"................................",
"................................",
"................................",
"        ............            ",
"                                ",
"XXXXXXXX            XXXXXXXXXXXX",
"ooooooooXXXXXXXXXXXXoooooooooooo",
"oooooooooooooooooooooooooooooooo"
};
